<svg width="103" height="41" viewBox="0 0 103 41" fill="none" xmlns="http://www.w3.org/2000/svg">
<path d="M95.4391 1.3899C95.9897 0.836808 96.3934 0.566406 96.9807 0.332877C97.5068 0.12393 98.0328 0.0133111 98.51 0.00102007C99.0361 -0.0112709 99.4887 0.0870571 100.1 0.320586C100.761 0.578697 101.128 0.824517 101.703 1.3899C102.266 1.95529 102.523 2.32402 102.731 2.87712C102.927 3.40563 103 3.88498 103 4.5364C103 5.18782 102.914 5.66717 102.719 6.19569C102.523 6.73649 102.241 7.14209 101.703 7.6829C101.14 8.24828 100.773 8.5064 100.223 8.71534C99.7089 8.89971 99.2073 8.98574 98.5712 8.98574C97.9227 8.98574 97.4456 8.89971 96.9195 8.70305C96.3934 8.5064 95.9897 8.23599 95.5003 7.74435C95.1333 7.36333 94.6928 6.78566 94.5338 6.44151C94.3013 5.97445 94.2279 5.56885 94.1912 4.72077C94.1545 3.79894 94.1912 3.49167 94.4237 2.87712C94.6194 2.33631 94.8886 1.943 95.4391 1.3899Z" fill="#F0B107"/>
<path d="M79.1796 8.54327C79.7179 8.44494 80.3174 8.33432 80.5254 8.30974C80.7334 8.28516 81.4797 8.24828 82.2138 8.23599C82.9356 8.23599 83.951 8.28516 84.4649 8.3589C84.991 8.43265 85.8351 8.59243 86.3367 8.71534C86.8384 8.83825 87.8049 9.17011 88.4778 9.4528C89.1507 9.7232 90.0805 10.178 90.5576 10.4607C91.0348 10.7434 91.7444 11.2227 92.1481 11.53C92.5518 11.8373 93.237 12.4149 93.6652 12.8328C94.0934 13.2384 94.754 13.9882 95.1455 14.4921C95.5248 14.996 96.1243 15.9179 96.4791 16.5201C96.8216 17.1224 97.2743 18.0688 97.4823 18.6096C97.678 19.1504 97.9472 20.0108 98.0818 20.5147C98.2041 21.0186 98.3632 21.9036 98.4366 22.4813C98.51 23.0589 98.5712 23.9931 98.5712 24.5707C98.5712 25.1484 98.4855 26.144 98.3876 26.7831C98.302 27.4222 98.0695 28.4547 97.8983 29.057C97.727 29.6592 97.3844 30.6056 97.1397 31.1464C96.895 31.6872 96.528 32.4001 96.32 32.7443C96.1243 33.0761 95.6594 33.7644 95.3046 34.2438C94.9498 34.7354 94.2524 35.5466 93.763 36.026C93.2737 36.5176 92.5151 37.1813 92.0747 37.4886C91.6465 37.7959 90.8512 38.3121 90.3129 38.6194C89.7746 38.9266 88.8937 39.3568 88.3554 39.5781C87.8171 39.787 86.8261 40.0943 86.1532 40.2664C85.4803 40.4261 84.6973 40.6105 84.4037 40.672C84.1223 40.7457 83.1925 40.7949 82.3361 40.7949C81.4675 40.7949 80.5743 40.7457 80.3419 40.6842C80.1094 40.6228 79.4733 40.4753 78.9349 40.3647C78.3966 40.2418 77.5402 39.9959 77.0386 39.8116C76.537 39.6272 75.6806 39.2585 75.1423 39.0004C74.604 38.73 73.7476 38.2383 73.2459 37.9065C72.7443 37.5623 71.8635 36.8495 71.3007 36.3086C70.7379 35.7678 69.9671 34.9075 69.5756 34.4035C69.1964 33.8996 68.6458 33.1007 68.3644 32.6213C68.083 32.142 67.6915 31.38 67.4958 30.9006C67.3123 30.4213 67.0064 29.5363 66.8229 28.934C66.6516 28.3318 66.4558 27.4714 66.3824 27.0289C66.309 26.5865 66.2479 25.4311 66.2479 24.4478C66.2601 23.3662 66.3335 22.2354 66.4558 21.5594C66.566 20.9572 66.8229 19.9493 67.0186 19.3471C67.2266 18.7448 67.6793 17.6878 68.0219 17.0118C68.3766 16.3358 68.9027 15.4508 69.1964 15.0452C69.49 14.6396 70.0405 13.9513 70.4198 13.5211C70.7991 13.0909 71.5209 12.4026 72.0225 11.997C72.5241 11.5914 73.3071 11.0138 73.772 10.7188C74.2247 10.4361 74.9588 10.0182 75.4114 9.80924C75.8763 9.60029 76.6838 9.26844 77.2221 9.08407C77.7604 8.88742 78.6413 8.65389 79.1796 8.54327Z" fill="#F0B107"/>
<path d="M79.3018 15.0574C79.6322 14.9468 80.1583 14.8116 80.4641 14.7378C80.77 14.6764 81.761 14.6395 82.6663 14.6641C83.9509 14.7009 84.5137 14.7747 85.1744 14.9836C85.6515 15.1311 86.4957 15.4999 87.0707 15.7826C87.6946 16.1021 88.4532 16.6306 88.9548 17.0977C89.4197 17.5279 90.0314 18.2039 90.3128 18.6095C90.6064 19.0151 90.9979 19.6788 91.2059 20.0844C91.4017 20.49 91.6953 21.2029 91.8421 21.6822C92.0256 22.2845 92.1357 22.9851 92.1847 24.0175C92.2336 25.2466 92.2091 25.6768 91.9889 26.6601C91.8421 27.2992 91.5362 28.2088 91.3038 28.6881C91.0713 29.1675 90.6921 29.8189 90.4474 30.163C90.2027 30.4949 89.6889 31.0971 89.3096 31.4905C88.9181 31.8838 88.2452 32.4492 87.8048 32.7441C87.3643 33.0391 86.6547 33.4201 86.2143 33.5922C85.7738 33.7643 85.0887 33.9978 84.685 34.1207C84.1344 34.2928 83.5472 34.342 82.2993 34.342C80.7088 34.3297 80.5987 34.3174 79.3018 33.8626C78.5555 33.6168 77.6502 33.2235 77.2832 32.99C76.9161 32.7687 76.231 32.2279 75.7661 31.7977C75.3012 31.3798 74.6895 30.6915 74.4081 30.2859C74.1145 29.8803 73.7107 29.2043 73.5027 28.7741C73.2948 28.3563 73.0134 27.6065 72.8666 27.1149C72.732 26.6355 72.5852 25.7014 72.5485 25.0623C72.5118 24.4231 72.5485 23.5013 72.6219 22.9974C72.6953 22.518 72.891 21.7068 73.0623 21.2275C73.2336 20.7358 73.5639 19.9984 73.7964 19.5928C74.0166 19.1872 74.506 18.4989 74.873 18.0564C75.2278 17.6139 75.8884 16.9871 76.3167 16.6552C76.7449 16.3356 77.4545 15.8809 77.8949 15.6596C78.3353 15.4384 78.9593 15.168 79.3018 15.0574Z" fill="white"/>
<path d="M37.7836 25.6179C37.7836 23.1415 38.2818 20.9783 39.278 19.1281C40.3027 17.2779 41.7117 15.8547 43.5049 14.8585C45.3266 13.8623 47.4045 13.3641 49.7385 13.3641C52.7273 13.3641 55.2179 14.1469 57.2103 15.7124C59.2313 17.2779 60.5549 19.4839 61.1811 22.3303H53.4104C52.7557 20.5086 51.4891 19.5978 49.6104 19.5978C48.2726 19.5978 47.2052 20.1243 46.4082 21.1775C45.6112 22.2022 45.2127 23.6824 45.2127 25.6179C45.2127 27.5535 45.6112 29.0478 46.4082 30.101C47.2052 31.1257 48.2726 31.638 49.6104 31.638C51.4891 31.638 52.7557 30.7272 53.4104 28.9055H61.1811C60.5549 31.695 59.2313 33.8867 57.2103 35.4807C55.1894 37.0747 52.6988 37.8717 49.7385 37.8717C47.4045 37.8717 45.3266 37.3736 43.5049 36.3773C41.7117 35.3811 40.3027 33.9579 39.278 32.1077C38.2818 30.2575 37.7836 28.0943 37.7836 25.6179Z" fill="white"/>
<path d="M30.3153 11.2295C29.0344 11.2295 27.9812 10.8594 27.1558 10.1194C26.3588 9.35083 25.9603 8.41152 25.9603 7.30142C25.9603 6.16286 26.3588 5.22355 27.1558 4.48348C27.9812 3.71495 29.0344 3.33069 30.3153 3.33069C31.5677 3.33069 32.5924 3.71495 33.3894 4.48348C34.2148 5.22355 34.6276 6.16286 34.6276 7.30142C34.6276 8.41152 34.2148 9.35083 33.3894 10.1194C32.5924 10.8594 31.5677 11.2295 30.3153 11.2295ZM33.9444 13.7058V37.5302H26.6434V13.7058H33.9444Z" fill="white"/>
<path d="M22.8424 17.2068C22.8424 18.9431 22.4439 20.5371 21.6469 21.9888C20.8499 23.412 19.626 24.5648 17.975 25.4471C16.3241 26.3295 14.2747 26.7707 11.8268 26.7707H7.30103V37.5301H0V7.5575H11.8268C14.2178 7.5575 16.2387 7.97022 17.8897 8.79568C19.5406 9.62114 20.7787 10.7597 21.6042 12.2114C22.4297 13.663 22.8424 15.3282 22.8424 17.2068ZM11.2718 20.9641C12.6665 20.9641 13.7054 20.6367 14.3886 19.982C15.0717 19.3274 15.4133 18.4023 15.4133 17.2068C15.4133 16.0113 15.0717 15.0862 14.3886 14.4316C13.7054 13.7769 12.6665 13.4496 11.2718 13.4496H7.30103V20.9641H11.2718Z" fill="white"/>
</svg>
